PathFileType	4	(X/Y/Z)	C:\Users\Basilio\Documents\Thesis Gigler\squatting_fais\c3dfiles\047\SLS_pre_back3\markers_experimental.trc
DataRate	CameraRate	NumFrames	NumMarkers	Units	OrigDataRate	OrigDataStartFrame	OrigNumFrames
200.000000	200.000000	4	61	mm	200.000000	0	1274
Frame#	Time	FHD			LBHD			RBHD			C7			T10			CLAV			LSHO			LUUPA			LMUPA			LDUPA			LLEP			LMEP			LRAD			LUL			LRFIN			RSHO			RUPA1			RMUPA			RDUPA			RLEP			RMEP			RRAD			RUL			RUFIN			LASI			RASI			USACR			LSACR			RSACR			LTHI1			LTHI2			LTHI3			LTHI4			LLFC			LTIB1			LTIB2			LTIB3			LTIB4			LLMAL			LMMAL			LMT1			LMT2			LMT5			RTHI			RTHI2			RTHI3			RTHI4			RLFC			RMFC			RTIB1			RTIB2			RTIB3			RTIB4			RLMAL			RMMAL			RHEE			RMT1			RMT2			RMT5			LMFC			*60			
		X1	Y1	Z1	X2	Y2	Z2	X3	Y3	Z3	X4	Y4	Z4	X5	Y5	Z5	X6	Y6	Z6	X7	Y7	Z7	X8	Y8	Z8	X9	Y9	Z9	X10	Y10	Z10	X11	Y11	Z11	X12	Y12	Z12	X13	Y13	Z13	X14	Y14	Z14	X15	Y15	Z15	X16	Y16	Z16	X17	Y17	Z17	X18	Y18	Z18	X19	Y19	Z19	X20	Y20	Z20	X21	Y21	Z21	X22	Y22	Z22	X23	Y23	Z23	X24	Y24	Z24	X25	Y25	Z25	X26	Y26	Z26	X27	Y27	Z27	X28	Y28	Z28	X29	Y29	Z29	X30	Y30	Z30	X31	Y31	Z31	X32	Y32	Z32	X33	Y33	Z33	X34	Y34	Z34	X35	Y35	Z35	X36	Y36	Z36	X37	Y37	Z37	X38	Y38	Z38	X39	Y39	Z39	X40	Y40	Z40	X41	Y41	Z41	X42	Y42	Z42	X43	Y43	Z43	X44	Y44	Z44	X45	Y45	Z45	X46	Y46	Z46	X47	Y47	Z47	X48	Y48	Z48	X49	Y49	Z49	X50	Y50	Z50	X51	Y51	Z51	X52	Y52	Z52	X53	Y53	Z53	X54	Y54	Z54	X55	Y55	Z55	X56	Y56	Z56	X57	Y57	Z57	X58	Y58	Z58	X59	Y59	Z59	X60	Y60	Z60	X61	Y61	Z61	

1	0	-152.8368225097657	1737.800903320313	-1085.859375	-330.8106384277344	1701.395751953125	-1110.380004882813	-305.8626098632813	1701.783569335938	-963.7108154296877	-356.8442993164063	1524.052001953125	-1045.35107421875	-379.9482727050782	1211.41015625	-1026.62890625	-210.2267761230469	1462.12548828125	-1075.0498046875	-288.1752014160157	1480.509887695313	-1225.1328125	-220.4689331054688	1339.154907226563	-1327.8544921875	-179.2294616699219	1366.231689453125	-1325.141967773438	-156.7501373291016	1312.8310546875	-1342.515502929688	-84.10881805419923	1303.97802734375	-1348.221313476563	-96.35750579833987	1249.099731445313	-1284.696044921875	71.46109771728517	1415.062744140625	-1175.323974609375	113.0758666992188	1351.984497070313	-1170.711059570313	160.8199005126953	1432.432250976563	-1166.880615234375	-242.7933349609376	1493.372802734375	-912.8151855468752	-140.6732940673828	1358.294921875	-818.8723754882815	-103.6768798828125	1382.167724609375	-839.6763305664065	-76.48186492919923	1330.663940429688	-824.2915039062502	-3.157090663909913	1322.618774414063	-844.3933105468752	-29.15583229064942	1254.128784179688	-897.0117797851565	89.6608123779297	1379.60888671875	-1080.958862304688	157.4398498535157	1368.32958984375	-1047.932006835938	129.1339111328125	1449.90087890625	-1084.015502929688	-214.8535308837891	985.6595458984377	-1127.758178710938	-199.425033569336	1001.679077148438	-896.3635864257815	-386.6941833496095	1076.67578125	-1009.693237304688	-394.8963317871095	1043.083618164063	-1035.290649414063	-389.2728576660157	1047.143798828125	-977.2482910156252	-300.0115051269532	827.6944580078127	-1185.989624023438	-264.8108520507813	751.0670776367189	-1182.196899414063	-216.1738739013672	755.2120361328126	-1170.848510742188	-293.4838562011719	697.5272216796876	-1172.26318359375	-316.7051696777344	527.1333007812501	-1126.779541015625	-289.9876403808594	345.3434448242188	-1025.498657226563	-299.1640319824219	295.4591979980469	-1097.705810546875	-283.4320068359376	294.5630798339844	-1052.37353515625	-299.2202148437501	219.8428955078126	-1018.795959472656	-352.2869873046876	125.044059753418	-1058.86962890625	-329.8482666015626	138.9210357666016	-972.6712036132815	-207.9750213623047	63.86126708984376	-991.6807250976565	-208.9304351806641	60.43700027465822	-1036.867309570313	-258.1374206542969	50.17739486694337	-1081.393676757813	-253.6742401123047	823.3668212890627	-790.0815429687502	-204.9131164550782	777.2829589843752	-785.786315917969	-175.7482452392578	781.909606933594	-798.2966308593752	-216.5003967285157	694.4563598632814	-776.0848388671877	-194.6053314208985	563.1083984375001	-786.2598876953127	-191.3328247070313	529.2565307617189	-912.6463623046877	-276.7801513671876	469.9916381835939	-783.2510986328127	-375.0764160156251	506.4938354492189	-748.9063110351564	-358.1913146972657	462.9533996582032	-753.7532958984376	-400.2904357910157	428.9208374023439	-779.9863891601565	-564.4738769531251	439.5208740234376	-745.4890136718751	-540.7133178710939	400.1611328125001	-825.7407226562502	-597.2738647460939	480.0412597656251	-808.7069091796877	-596.7078857421876	271.5164184570313	-794.736267089844	-602.9824829101564	271.1021728515626	-757.6173095703126	-635.1481933593751	325.6365966796876	-705.9995727539064	nan	nan	nan	nan	nan	nan	
2	0.005	-152.8582000732422	1737.257080078125	-1085.89599609375	-330.9171752929688	1701.340942382813	-1110.351196289063	-305.8947448730469	1701.782958984375	-963.6943969726565	-357.0113220214844	1523.994750976563	-1045.321655273438	-380.0647888183594	1211.3310546875	-1026.673583984375	-210.2767181396485	1462.057983398438	-1075.063110351563	-288.3863830566407	1480.506469726563	-1225.107543945313	-220.5500640869141	1339.170776367188	-1327.921508789063	-179.4202880859375	1366.225952148438	-1325.138061523438	-156.8542633056641	1312.891967773438	-1342.525756835938	-84.21710205078126	1304.030517578125	-1348.235229492188	-96.35750579833987	1249.099731445313	-1284.696044921875	71.27070617675783	1415.095458984375	-1175.211547851563	112.9847488403321	1351.934936523438	-1170.687255859375	160.7160797119141	1432.419311523438	-1166.804321289063	-242.9342041015626	1493.31884765625	-912.8298950195315	-140.8850555419922	1358.248168945313	-818.8663330078127	-103.7468032836914	1382.168823242188	-839.651062011719	-76.71478271484376	1330.571166992188	-824.224548339844	-3.225867033004762	1322.591430664063	-844.400573730469	-29.32451248168946	1254.129760742188	-896.8880004882815	89.3990936279297	1379.585327148438	-1080.704956054688	157.3155212402344	1368.323364257813	-1047.923217773438	129.0392456054688	1449.88134765625	-1083.944580078125	-214.9476470947266	985.593200683594	-1127.80859375	-199.4937133789063	1001.673950195313	-896.4422607421877	-386.9701232910157	1076.338012695313	-1009.832763671875	-394.9324340820314	1042.983764648438	-1035.368896484375	-389.4671020507814	1047.094604492188	-977.3336181640627	-300.0202636718751	827.6381835937502	-1186.0654296875	-264.9217834472657	750.9944458007814	-1182.203125	-216.1778869628907	755.1725463867189	-1170.844116210938	-293.5455627441407	697.5405273437501	-1172.268676757813	-316.7179260253907	527.0842895507814	-1126.77294921875	-290.0074768066407	345.3203125000001	-1025.502563476563	-299.2340698242188	295.4569702148438	-1097.697631835938	-283.4431152343751	294.5400085449219	-1052.406982421875	-299.2594604492188	219.8345336914063	-1018.818359375	-352.3677673339844	125.0354919433594	-1058.86865234375	-329.8646240234376	138.884017944336	-972.6910400390627	-207.9547424316407	63.84239578247072	-991.7019653320315	-208.8423309326172	60.49693679809572	-1036.931274414063	-258.0934448242188	50.18712997436525	-1081.392700195313	-253.8923797607422	823.2395019531252	-790.0972900390627	-205.0384979248047	777.2261352539065	-785.847595214844	-175.9034576416016	781.8569335937502	-798.3900146484377	-216.6690826416016	694.4362792968751	-776.153503417969	-194.8936767578126	562.9607543945314	-786.3061523437502	-191.4853820800782	529.1922607421876	-912.7421875000002	-276.8952026367188	469.8925781250001	-783.4104614257815	-375.3706054687501	506.4340820312501	-748.9796752929689	-358.3484802246094	462.8497009277345	-753.8168334960939	-400.4461059570314	428.8592529296876	-780.093933105469	-564.6259155273439	439.3801574707032	-745.6380004882814	-540.9310302734376	400.0175781250001	-825.8067016601565	-597.4514160156251	479.9544067382814	-808.8298339843752	-596.8535766601564	271.4584350585938	-795.008972167969	-603.3937377929689	271.0348205566407	-757.8695678710939	-635.2843017578126	325.4745178222657	-706.2208862304689	nan	nan	nan	nan	nan	nan	
3	0.01	-152.8597717285157	1737.233642578125	-1085.834228515625	-330.9934997558594	1701.309326171875	-1110.321655273438	-305.9585876464844	1701.754272460938	-963.6538085937502	-357.1957397460938	1523.976806640625	-1045.31884765625	-380.2136230468751	1211.283203125	-1026.7568359375	-210.5925445556641	1461.829345703125	-1075.027709960938	-288.5815124511719	1480.503662109375	-1225.103149414063	-220.7658843994141	1339.211303710938	-1327.933227539063	-179.3800506591797	1366.299438476563	-1325.160888671875	-156.9677124023438	1312.906982421875	-1342.60791015625	-84.23021697998048	1304.04736328125	-1348.247192382813	-96.38262176513675	1249.140502929688	-1284.735473632813	71.10219573974611	1415.093505859375	-1175.119750976563	112.8743591308594	1351.9921875	-1170.68115234375	160.5512237548828	1432.4189453125	-1166.776733398438	-242.9994354248047	1493.277954101563	-912.8604125976565	-140.9839630126953	1358.188598632813	-818.901794433594	-103.9534606933594	1382.09033203125	-839.5545043945315	-76.8930130004883	1330.529663085938	-824.181335449219	-3.310336828231812	1322.583251953125	-844.3750610351565	-29.41598510742188	1254.068725585938	-896.9226684570315	89.24568176269533	1379.545166015625	-1080.729858398438	157.1466522216797	1368.359741210938	-1047.83642578125	128.8566589355469	1449.820068359375	-1083.854858398438	-215.0052490234376	985.5463867187502	-1127.757080078125	-199.591781616211	1001.644104003906	-896.4904785156252	-387.0637512207032	1076.20654296875	-1009.907287597656	-394.9688720703126	1042.88916015625	-1035.426147460938	-389.6561584472657	1047.0546875	-977.4234619140627	-300.0840759277344	827.6487426757815	-1186.0419921875	-264.9441833496094	750.9675292968751	-1182.197021484375	-216.2310638427735	755.1878051757814	-1170.867553710938	-293.5322570800782	697.4536132812501	-1172.313842773438	-316.8406372070313	527.0914916992189	-1126.8193359375	-290.1158142089844	345.3584289550782	-1025.509765625	-299.2207946777344	295.4302368164063	-1097.727416992188	-283.4921264648438	294.5155029296876	-1052.3388671875	-299.2667541503907	219.8421936035157	-1018.800964355469	-352.3627929687501	124.9834899902344	-1058.845825195313	-329.8624572753907	138.8690948486328	-972.687683105469	-207.9991455078126	63.8392677307129	-991.693786621094	-208.8548431396485	60.46560287475587	-1036.878295898438	-258.0521240234376	50.20414352416994	-1081.387084960938	-254.0182800292969	823.182312011719	-790.1567993164065	-205.2995147705079	777.100036621094	-785.8059692382815	-176.0739135742188	781.7712402343752	-798.4808349609377	-216.8377532958985	694.3735351562501	-776.2218017578127	-195.0462188720704	562.9232788085939	-786.406433105469	-191.7093658447266	529.1008911132814	-912.8150634765627	-277.0118408203126	469.7974243164064	-783.5618896484377	-375.6255798339844	506.3257141113282	-749.0366821289064	-358.5383605957032	462.7565917968751	-753.9178466796876	-400.6211547851564	428.748016357422	-780.2559814453127	-564.7700805664064	439.2944335937501	-745.8090820312501	-541.0851440429689	399.9538574218751	-825.9885253906252	-597.6002197265626	479.8536682128907	-808.9238891601565	-596.8846435546876	271.9615173339844	-794.9946899414065	-597.7809448242189	272.6501464843751	-748.6896972656251	-635.5718994140626	325.3135375976563	-706.3693847656251	-285.3117980957032	524.1873168945314	-1007.520202636719	nan	nan	nan	
4	0.015	-152.9210357666016	1737.216186523438	-1085.862426757813	-331.0987548828126	1701.278076171875	-1110.310424804688	-306.0450744628907	1701.72265625	-963.6628417968752	-357.3610229492188	1523.940795898438	-1045.325561523438	-380.3220520019532	1211.229248046875	-1026.7958984375	-210.7129821777344	1461.727661132813	-1075.011962890625	-288.6871643066407	1480.487915039063	-1225.10888671875	-220.7084655761719	1339.208740234375	-1328.03271484375	-179.5701293945313	1366.316284179688	-1325.176025390625	-157.037826538086	1312.965698242188	-1342.59814453125	-84.41770172119142	1304.095458984375	-1348.2431640625	-96.5486755371094	1249.129150390625	-1284.735107421875	70.91564941406251	1415.121948242188	-1175.02392578125	112.754264831543	1352.018676757813	-1170.642211914063	160.321029663086	1432.465698242188	-1166.663330078125	-243.1124572753907	1493.22900390625	-912.891540527344	-141.204345703125	1358.0751953125	-818.8591308593752	-104.0988922119141	1382.0673828125	-839.5278930664065	-77.32839965820314	1330.480590820313	-823.9863891601565	-3.443133115768434	1322.55517578125	-844.379821777344	-29.64292144775391	1254.062866210938	-896.7840576171877	89.04754638671876	1379.603515625	-1080.679931640625	156.9351196289063	1368.39306640625	-1047.787475585938	128.7699432373047	1449.83251953125	-1083.814453125	-215.1290283203126	985.5020751953127	-1127.801391601563	-199.7613830566407	1001.525695800781	-896.4389648437502	-387.2019958496095	1076.175537109375	-1009.946105957031	-394.966278076172	1042.7890625	-1035.520751953125	-389.790496826172	1047.01953125	-977.457946777344	-300.1460876464844	827.628112792969	-1186.067749023438	-264.9561767578126	750.9649658203126	-1182.214477539063	-216.2890319824219	755.1505126953126	-1170.828247070313	-293.5458068847657	697.4665527343751	-1172.310668945313	-316.8179626464844	527.0662231445314	-1126.857543945313	-290.1816711425782	345.3779907226563	-1025.499755859375	-299.2082519531251	295.4312438964844	-1097.763671875	-283.5562133789063	294.5791015625001	-1052.34375	-299.3461914062501	219.8023223876954	-1018.792053222656	-352.3854980468751	125.0027008056641	-1058.843383789063	-329.8624572753907	138.8690948486328	-972.687683105469	-207.9990386962891	63.83924865722658	-991.693786621094	-208.8439025878907	60.49383544921876	-1036.901123046875	-258.1312866210938	50.21181869506837	-1081.384643554688	-254.1361083984376	823.1049804687502	-790.243591308594	-205.4126586914063	777.0299072265627	-785.882995605469	-176.2788848876953	781.6646118164065	-798.538024902344	-217.0593719482422	694.1955566406251	-776.2031250000002	-195.1899566650391	562.8611450195314	-786.5506591796877	-191.9015655517578	529.0865478515626	-912.9050903320315	-277.2330627441407	469.7678527832032	-783.5932617187502	-375.7951049804688	506.2103881835939	-749.1723022460939	-358.6567993164063	462.7296752929689	-754.0178222656251	-400.7684631347657	428.6495666503907	-780.4932250976565	-564.9255981445314	439.2196655273439	-745.9696655273439	-541.2872314453126	399.868621826172	-826.1458740234377	-597.7131958007814	479.779754638672	-809.045104980469	-596.9710693359376	271.8640441894532	-795.0781860351565	-597.9157104492189	272.5643920898438	-748.9867553710939	-635.7232055664064	325.1919860839844	-706.6318359375001	-285.4849243164063	524.1730957031251	-1007.522338867188	nan	nan	nan	
